<?xml version="1.0" encoding="utf-8"?>
<!-- Generator: Adobe Illustrator 26.0.1, SVG Export Plug-In . SVG Version: 6.00 Build 0)  -->
<svg version="1.1" id="Layer_1" xmlns="http://www.w3.org/2000/svg" xmlns:xlink="http://www.w3.org/1999/xlink" x="0px" y="0px"
	 viewBox="0 0 19.3 47.2" style="enable-background:new 0 0 19.3 47.2;" xml:space="preserve">
<style type="text/css">
	.st0{fill:#FFFFFF;}
</style>
<g>
	<g>
		<path class="st0" d="M12.5,16.2c-0.2,0.7-0.2,1.4-0.3,2.1l-0.1,0.7c-0.4,3.1-0.8,6.4-2.1,9.4c-0.4,0.9-0.9,1.8-1.4,2.8
			c-0.2,0.4-0.5,0.9-0.7,1.3L7.7,33l-0.9-0.5c-0.3-0.2-0.5-0.3-0.7-0.4l-1.2-0.6c-1.3-0.6-2.6-1.3-3.9-1.9c-0.2-0.1-0.4-0.2-0.6-0.2
			c-0.1,0-0.1,0-0.2,0C0.1,29.6,0,29.9,0,30.3c0,0.3,0,0.5,0,0.8c0.9,5,1.3,10.1,1,15.2c0,0.7,0.1,0.9,0.2,0.9
			c0.1,0.1,0.3,0.1,1-0.1l1.3-0.5c2.5-0.9,5.2-1.8,7.8-2.7c1.1-0.4,2.2-0.7,3.3-1c0.7-0.2,1.4-0.4,2.1-0.6c0.5-0.2,0.6-0.3,0.6-0.4
			c0,0,0-0.2-0.4-0.7c-0.4-0.5-0.7-1-1.1-1.5c-0.4-0.5-0.7-1-1.1-1.5c-0.9-1.1-0.6-1.9,0-2.8c3.4-5,4.9-9.9,4.5-15.2
			c-0.5-5.9-2.5-10-6.3-12.7L12.5,16.2z M2,46.1L0.9,30.1L3,31.2c1.1,0.6,2.3,1.2,3.4,1.8c1.3,0.7,1.3,0.7,2.1-0.5
			c1.7-2.3,2.8-5.1,3.5-8.8c0.5-2.6,0.9-5.5,1.3-9c0.1-1.1,0.1-2.3,0.1-3.4c0-0.6,0-1.1,0-1.7v-1l0.9,0.9c0.2,0.2,0.3,0.3,0.5,0.5
			c2.6,2.7,3.3,6.1,3.7,9.4c0.7,5.3-0.8,10.5-4.4,15.8c-1,1.5-1,1.5-0.1,3c0.4,0.7,0.9,1.3,1.3,2l0.9,1.4L2,46.1z"/>
	</g>
	<path class="st0" d="M12.6,16.6c0.2-1-0.4-1.4-1.2-1.9c-2.5-1.4-5.2-2.3-8.1-2.6c-1.5-0.2-1.8-0.3-1.9-1.9C1.1,7.5,0.9,4.8,0.7,2.1
		c0-0.3-0.3-0.6-0.3-1c-0.1-0.3-0.1-0.7,0-0.9C0.5,0,1-0.1,1.3,0c3.5,1.3,6.5,3.2,9.3,5.5c0.9,0.8,1.8,1.6,2.8,2.3 M2.4,11.4
		c0.1,0.2,0.1,0.2,0.2,0.3c2.2-0.9,6-3.9,8-5.2C10.4,6.3,10.2,6,10,6.2C8.2,7.3,4.3,10.2,2.4,11.4z M2,11.1c2-1.4,5.7-4,7.9-5.5
		C8.9,5.2,2.7,9.6,2,11.1z M1.8,10.3c1.8-1.4,5.6-4.2,7.4-5.5C8.1,4.3,2,8.9,1.8,10.3z M11.8,7.4c-0.4-0.7-0.8-0.5-1.3-0.3
		c-1.4,0.9-3.6,2.4-5,3.3c-0.1,0.1-1.7,1.1-1.8,1.2c0.1,0.1,0.1,0.2,0.2,0.3C5.8,10.9,9.9,8.5,11.8,7.4z M7.7,12.1
		c0,0.1,0,0.2,0.1,0.3c0.1,0.1,0.3,0.2,0.4,0.2c1.1-0.4,3.5-1.8,4.6-2.2c0.1,0,0.1-0.3,0-0.4c-0.1-0.1-0.3-0.2-0.5-0.2
		C11.2,10.2,8.8,11.6,7.7,12.1z M1.8,9C3.2,7.8,6.6,5.3,8,4.1C6.9,3.8,1.8,7.8,1.8,9z M1.5,6.5c1-0.7,3.6-2.6,4.6-3.3
		C5.1,2.8,1.6,5.4,1.5,6.5z M6.3,11.9c0.1,0.1,0.1,0.2,0.2,0.3C8,11.5,11.2,9.7,12.7,9c-0.1-0.1-0.1-0.3-0.2-0.4
		C11,9.3,7.8,11.2,6.3,11.9z M1.5,7.2c0.1,0.1,0.2,0.2,0.3,0.3C2.9,6.6,5,5.1,6.2,4.2c1.4-1.4,0.4-0.6,0.3-0.7
		C5.3,4.4,2.7,6.3,1.5,7.2z M8.8,12.7c1,0.7,2.9-0.3,3.6-0.6c0.2-0.1,0.3-0.9,0.5-1.4C11.8,11.1,9.7,12.3,8.8,12.7z M5.1,11.8
		c0.1,0.1,0.1,0.2,0.2,0.3c1.7-0.9,5.4-3,7.1-3.9C12.3,8,12.3,8,12.2,7.9C10.5,8.8,6.8,10.8,5.1,11.8z M5.2,2.5C4,2.4,1.6,4,1.6,4.9
		C2.2,4.4,4.5,3,5.2,2.5z M10.5,13.5c0.6,0.3,1,0.5,1.5,0.8c0-0.5,0.6-1.3,0.6-1.7C12.2,12.7,11.1,13.3,10.5,13.5z"/>
</g>
</svg>
