<?xml version="1.0" encoding="utf-8"?>
<!-- Generator: Adobe Illustrator 26.0.1, SVG Export Plug-In . SVG Version: 6.00 Build 0)  -->
<svg version="1.1" id="Layer_1" xmlns="http://www.w3.org/2000/svg" xmlns:xlink="http://www.w3.org/1999/xlink" x="0px" y="0px"
	 viewBox="0 0 129.4 131.2" style="enable-background:new 0 0 129.4 131.2;" xml:space="preserve">
<style type="text/css">
	.st0{clip-path:url(#SVGID_00000114784151832066730280000004814540614610288566_);}
	.st1{fill:#C6DADE;}
</style>
<g>
	<g>
		<defs>
			<rect id="SVGID_1_" width="129.2" height="131.2"/>
		</defs>
		<clipPath id="SVGID_00000157271399492054135930000008123149870302038656_">
			<use xlink:href="#SVGID_1_"  style="overflow:visible;"/>
		</clipPath>
		
			<g id="Group_852_00000129915572448182364420000001056710042776675716_" style="clip-path:url(#SVGID_00000157271399492054135930000008123149870302038656_);">
			<path id="Path_3236_00000111169709667067654710000000282553605005243313_" class="st1" d="M129.1,95.1v-0.5"/>
			<path id="Path_3237_00000034069505181313910380000015870841277088857521_" class="st1" d="M129.3,90v-3.3h0.1V0H0
				c0,0,0,97.4,0,97.5c0,0.4,0.1,0.9,0.4,1.2c0.4,0.4,0.9,0.7,1.4,0.9c0.1,0,0.2,0.1,0.3,0.1c0.1,0,0.3,0.1,0.4,0.1
				c0.3,0.1,0.7,0.1,1,0.2c0.2,0.1,0.5,0,0.7,0.1c0.1,0,0.2,0.1,0.3,0.1c0.2,0.2,0.2,0.7,0.3,1c0.1,0.3,0.1,0.6,0.1,0.9
				c-0.3,2.6-0.6,5.3-1,7.9c-0.2,1.8-0.6,3.6-0.7,5.3c0,1.5,0.8,2.9,2.1,3.7c1,0.7,2.3,0.8,3.3,0.1c1.2-0.7,2.1-1.9,2.3-3.3
				c0.2-1.3,0.1-2.6-0.1-3.9c-0.5-2.6-1.3-5.1-1.8-7.7c-0.2-1.2-0.1-2.4,0.3-3.5c0.7-2,2.8-2.2,4.4-0.6c0.7,0.6,1,1.6,0.8,2.5
				c-0.2,0.8-0.3,1.6-0.3,2.4c0.2,1.4,1.4,2.3,2.8,2.2c1.4,0,2.5-1.1,2.6-2.4c0-0.6-0.1-1.2-0.2-1.8c-0.2-1.5,0.6-2.2,2.4-2
				c1,0,1.8,0.8,1.8,1.8v0.1c0.1,0.9,0,1.9,0.1,2.8c0.1,2.5,1.5,3.6,4.4,3.1c1.2-0.2,2.3-0.5,3.5-0.8c1.6-0.3,2.8,0.3,3.2,1.6
				c0.2,1,0.3,2.1,0.1,3.1c-0.4,4-1.1,7.9-1.4,11.8c-0.1,1.5,0.1,3,0.5,4.4c0.5,1.9,2.6,2.7,4.8,2.2c1.5-0.2,2.7-1.2,3.2-2.6
				c0.3-0.9,0.4-1.9,0.5-2.8c0-3.2-0.6-6.3-1.7-9.2c-0.6-1.9-1-3.8-1.3-5.8c-0.1-1,0.4-2,1.2-2.5c0.7-0.5,1.7-0.6,2.4-0.1
				c1,0.5,1.5,1.6,1.3,2.6c-0.1,1.1-0.3,2.1-0.6,3.2c-0.5,1.5-0.4,3.2,0.4,4.6c0.6,1.1,1.9,1.5,3.1,1.2c0.9-0.2,1.7-0.9,1.9-1.8
				c0.2-1.3,0.1-2.6-0.4-3.9c-0.4-1.7-0.6-3.4-0.7-5.1c0.2-0.9,0.7-1.6,1.4-2.1c0.9-0.8,2.3-0.8,3.1,0.1c0.1,0.2,0.3,0.3,0.4,0.5
				c0.6,1,0.8,2.1,1.3,3.2c0.5,1.2,1.1,2.4,1.8,3.5c0.5,0.9,1.4,1.4,2.4,1.3c1.1-0.2,1.5-1,1.8-1.8c0.3-1.1,0.5-2.2,0.8-3.2
				c0.5-1.6,2.2-2.4,3.8-1.9c0.2,0.1,0.4,0.2,0.6,0.3c0.9,0.5,1.8,1.1,2.6,1.7c2.4,1.6,4.3,1.2,5.5-1.2c0.3-0.5,0.4-1,0.7-1.6
				c0.1-0.5,0.4-0.9,0.7-1.4c0.4-0.5,1-0.8,1.6-0.9c0.7-0.1,1.4,0.4,1.5,1.1c0.2,1,0.4,1.9,0.4,2.9c-0.2,3.2-0.6,6.5-0.8,9.7
				c-0.2,1.8,0.1,3.5,0.9,5.1c0.7,1.3,2.1,2.1,3.6,1.9c1.3-0.1,2.1-0.8,2.5-2.3c0.5-2.1,0.5-4.2,0.1-6.3c-0.4-2.9-1.2-5.7-2.4-8.4
				c-0.6-1.2-0.5-2.6,0.3-3.6c0.8-1.1,2.3-1.3,3.4-0.5c0.2,0.1,0.3,0.2,0.4,0.4c0.6,0.7,0.8,1.6,0.5,2.4c-0.4,1.3-0.6,2.5-0.8,3.8
				c-0.1,1.9,1.4,3,4,2.9c2-0.1,3.3-1.3,3.1-3.1c-0.1-1-0.5-1.9-1-2.7c-1.4-2.2-0.8-4.3,0.3-6.4c0.8-1.3,2.3-2.1,3.9-2
				c1.4,0.1,2.8,0.2,4.2,0.4c2.1,0.4,4.3-0.1,6-1.4c0.6-0.5,1.3-0.8,2.1-0.9c1.8-0.4,2.9,0.4,2.7,2c-0.2,0.9-0.4,1.8-0.7,2.7
				c-0.6,2.1-1.2,4.2-0.7,6.4c0.4,1.8,1.8,2.6,4.1,2.5c2.3-0.1,3.6-1.1,3.6-3c0-1.2-0.2-2.4-0.5-3.5c-0.3-1.6-0.9-3.1-1.1-4.7
				c-0.3-1.7,0.5-2.3,2.5-2.2c0.7,0,1.4,0.1,2.1,0.2C124.1,99.1,129.2,95.5,129.3,90 M72.6,107c0,0.7-1,1.6-1.8,1.6
				c-0.7,0.1-1.3-0.4-1.5-1.1c0.1-0.9,0.9-1.6,1.8-1.6S72.6,106.3,72.6,107 M5.1,100.1c-0.3-0.8-1.1-1.3-1.9-1
				c-0.2,0.1-0.3,0.1-0.4,0.2l0.3-0.4c0.5-0.2,0.8-0.4,1.3-0.4C5.2,98.6,5.2,99.2,5.1,100.1 M9.1,114c0.2-0.8,0.2-1.5,0.2-2.3
				c0-0.3-0.1-0.6-0.1-0.9c0.9,1.3,1.3,2.9,1.2,4.5c-0.1,0.7-0.5,1.3-1.2,1.6c-1,0.4-2-0.5-1.5-1.3c0,0,0-0.1,0.1-0.1
				C8.2,114.6,8.6,114.9,9.1,114 M9.6,98.6c-1.6,1.1-2.3,3-2,4.9c0.1,1.6,0.6,3.1,0.8,4.7c-1.1-2.6-2.2-5.2-1.1-8
				c0.6-1.4,2-2.4,3.5-2.7c0.2,0,0.4-0.1,0.6-0.1c0.1,0,0.2,0,0.3,0.1C11,97.8,10.3,98.1,9.6,98.6 M18.5,103.4
				c0,0.3,0.1,0.6,0.2,0.9c0.2,0.9-0.2,1.4-1.2,1.5c0-0.9,0-1.8,0-2.7c0-0.8,0.1-1.5,0.3-2.2c0.6-1.1,2-1.6,3.1-1
				c0.1,0,0.1,0.1,0.2,0.1C18.9,100.5,18.2,101.4,18.5,103.4 M35.3,108c-2.1-1.5-4.4-1-6.7-0.4c-0.3,0.1-0.6,0.2-0.8,0.3
				c-2.1,0.6-3.3-0.3-3.2-2.1c0-0.8,0.1-1.6,0.2-2.3c0.1,0.6,0.2,1.1,0.3,1.7c0.4,1.3,1.1,1.8,2.7,1.7c1.3-0.1,2.5-0.3,3.8-0.4
				c1.3-0.3,2.6,0.2,3.6,1.1C35.3,107.7,35.4,107.8,35.3,108C35.3,107.9,35.3,108,35.3,108 M39.9,119c0.4,2.1,0.6,4.3,0.7,6.5
				c0,0.8-0.2,1.7-0.6,2.4c-0.2,0.4-0.7,0.7-1,1.1c-0.1-0.1-0.1-0.1-0.2-0.2c1.7-1.9,1.4-4,1.1-6.1c-0.4-2.5-1.2-4.9-1.6-7.4
				c-0.2-1.9-0.3-3.9-0.2-5.8c0.1-0.7,0.5-1.3,1-1.9C37.9,111.5,39.2,115.2,39.9,119 M38.9,106.6c0.8-1.3,2.5-1.7,3.8-0.9
				c0.3,0.2,0.5,0.4,0.7,0.6C41.9,105.8,40.3,105.9,38.9,106.6 M47.5,113.4c0.2,1.1,0.4,2.3,0.5,3.4c0.1,0.9-0.3,1.1-1.4,1.1
				c0.6-2,0.2-3.9-0.2-5.8c-0.4-2.3-0.2-4.3,1.9-6c0.3-0.2,0.7-0.5,1.1-0.7c0.1,0.1,0.1,0.2,0.1,0.2C46.7,107.8,47,110.6,47.5,113.4
				 M69.8,110.1c-0.9-0.4-1.7-1-2.7-1.5c-0.9-0.5-1.7-0.9-2.7-1.3c-1.6-0.6-3.3,0.1-4,1.7l0,0c-0.3,0.8-0.6,1.7-0.8,2.5h-0.3
				c-0.1-1.5,0.2-3,1-4.3c0.9-1.4,2.6-1.9,4.1-1.2c0.8,0.4,1.6,0.8,2.4,1.3c0.6,0.4,1.1,0.9,1.7,1.4c1.1,1.1,2.8,1.2,4,0.2
				c-0.3,1-1.3,1.6-2.3,1.3C70.2,110.3,70,110.2,69.8,110.1 M76.3,104.8c-0.7,0.2-1.4,0.4-2,0.8c0.2-0.8,0.5-1.6,1.6-1.8
				c1.3-0.2,1.9,0.6,2.9,1.4C77.9,105,77.1,104.9,76.3,104.8 M81.7,110c0.4,1.7,0.9,3.4,1.3,5.1c0.7,2.5,1,5,0.8,7.6
				c0,0.9-0.5,1.7-1.3,2.2c1.1-5.1-0.1-9.9-1-14.8L81.7,110 M90.8,105.3c0.2,1.4,0.8,2.8,1.1,4.2c0.2,0.7,0.4,1.4,0.5,2.1
				c0,0.7-0.4,1.3-1.6,1.5c1.3-1.5,0.6-2.8,0-4.1c-0.8-1.6-1.3-3.4-1.3-5.2c0.1-2.9,3-5,6.5-4.7l0,0c0,0,0,0,0,0.1
				C92.6,99.9,90.3,102.6,90.8,105.3 M110.7,97.4c-0.2-0.1-0.4-0.2-0.6-0.3c-1-0.4-2.1-0.2-2.9,0.5c-1.2,1.1-2.7,1.9-4.3,2.3
				c1.2-1.1,2.3-2.2,3.5-3.2c1.4-1.3,3.6-1.2,4.9,0.2C111.5,97.3,111.1,97.7,110.7,97.4 M116.5,105.7c0.1,0.9,0.1,1.8,0,2.7
				c-0.1,0.7-0.6,1.2-1.6,1.5c1.8-3,0.6-5.7,0.1-8.5l0.3-0.1C115.7,102.7,116.2,104.2,116.5,105.7"/>
		</g>
	</g>
</g>
</svg>
