<?xml version="1.0" encoding="utf-8"?>
<!-- Generator: Adobe Illustrator 26.0.1, SVG Export Plug-In . SVG Version: 6.00 Build 0)  -->
<svg version="1.1" id="Layer_1" xmlns="http://www.w3.org/2000/svg" xmlns:xlink="http://www.w3.org/1999/xlink" x="0px" y="0px"
	 viewBox="0 0 460 453.2" style="enable-background:new 0 0 460 453.2;" xml:space="preserve">
<style type="text/css">
	.st0{fill:#2B2B2A;}
</style>
<g>
	<path d="M105.6,118.7c15.6-13.2,37.4,0,52.2-20.6s-9.3-36-17.4-50.6c-8.1-14.6-9-28.7,6.2-35c15.2-6.3,29,1.3,32.5,18.4
		c2.9,14.3-2.7,41.5,13.5,49.4c16.2,7.9,36.5-25,57.4-22.5c20.9,2.5,28.8,19.3,47.6,30s31.5-9.2,54.4,4.1
		c22.9,13.2,12.2,32.9,30.7,39.5c18,6.4,20.8-14.6,38-22.7c11.1-5.3,31.6-6.6,38.2,12.8c6.2,18.3-17.4,31.6-38.4,31.6
		c-21.2,0-42.5,11.3-38.5,28.5c2.1,8.9,13.8,12.6,23.3,7.1c8.8-5.1,24.1-4.6,27,4.3c5.2,16.2-14.9,18-23.3,18c-9.2,0-14,9.2-14,17.1
		c0,17.5,21.1,17,19.2,46.5c-0.7,11.3-10.3,16.4-10.3,33c0,11.4,13.5,16.1,28.3,19.2c11.1,2.3,20.1,10.2,15.6,23.5
		c-4.6,13.7-26.3,12.9-37.1,2.2c-12.2-12.2-26.4-20.4-35-15c-8.6,5.4-0.6,23.2-13.5,34c-10.5,8.8-26.3-3.6-37.8,2.7
		c-6.8,3.7-9.4,16.8-3.4,29.9c6.7,14.5,2.6,31.1-9.7,34c-13.8,3.2-25.5-7.5-30.7-23.3c-4.2-12.8-14.1-19.3-25.6-21.1
		c-31.6-4.9-41.3,24.3-70.5,21.4c-29.2-3-20.6-34.5-45.5-38.4c-16.7-2.6-26.1,9.9-32.6,24.6c-11.8,27-37.3,27.5-45.3,18
		c-5.3-6.4-11.7-22.6,18.5-36.8c13.2-6.2,26.7-18.4,21.6-37.6c-7.6-28.5-36.5-7.1-44-28c-6.1-17.1,14.2-21.9,6.9-39
		c-3.3-7.9-14.6-4.9-16.2-18.7c-1.6-14,5.8-19.2,2.6-31.4c-3.2-12.2-26.2-7.2-33.9-7.2c-7.7,0-18.4-4.8-16.4-18.1
		c2.1-13.6,19.2-17.1,33.8-8.4c14.6,8.7,30,4.7,33.4-4.3c3.5-9.1-4.9-23.7-22.3-31.1c-17.4-7.4,0.5-32.5,16.7-13
		c6.9,8.3,20.5,11.4,26.9,5.1C96.5,142.7,96.2,126.6,105.6,118.7z M325.2,27.9c-25.5-14.8-47-1.5-36.9,26.7
		c3,8.4,8.1,16.9,16.4,19.9C323.9,81.4,363.4,49.9,325.2,27.9z M121.8,400c-2.4,4.5-2.8,10.4,0.3,14.4c2.9,4,8.2,5.4,13.2,5.4
		c4.5,0,9.3-1.2,12.6-4.2c4.4-4,5.5-11,2.9-16.4c-2.6-5.3-8.6-8.7-14.6-8.4C130.2,391.1,124.6,394.8,121.8,400z M159.3,424.6
		c-4.9-1.5-10.6,3.4-9.8,8.5c0.8,5.3,8.4,8.1,12.5,4.6S164.5,426.2,159.3,424.6z M369.3,412.9c-6.6-0.3-13.8,2.4-17,8.1
		c-4.9,8.8-4.2,19.6,3.4,26.8c13.1,12.4,36.6,2,35.1-16.5C390,421,379.6,413.3,369.3,412.9z M30,121.4c1.7,6.5,11.7,8.6,16,3.5
		c4.3-5.2,0.3-14.5-6.4-15C33.8,109.4,28.5,115.8,30,121.4z M348.6,25.8c-1.1,3.2-0.1,7.1,2.4,9.4c2.5,2.3,6.4,3,9.6,1.7
		c5.5-2.3,7-10.8,2.6-14.8C358.8,18,350.5,20.1,348.6,25.8z M269.4,14.1c-1.5-8.1-8.6-14.9-18.9-14c-16.5,1.3-23.8,22.2-8.9,32.4
		c5.8,4,14,3.8,19.7-0.2C268.2,27.5,270.5,20.4,269.4,14.1z"/>
	<g>
		<path class="st0" d="M164.1,69.3c-1.1,0-2.1-0.6-2.6-1.6c-0.4-0.7-0.8-1.5-1.2-2.2c-0.8-1.4-0.4-3.2,1-4c1.4-0.8,3.2-0.4,4,1
			c0.5,0.8,0.9,1.6,1.4,2.5c0.8,1.4,0.2,3.2-1.2,4C165.1,69.2,164.6,69.3,164.1,69.3z"/>
		<path class="st0" d="M162.2,102.2c-0.6,0-1.2-0.2-1.7-0.6c-1.3-0.9-1.6-2.8-0.7-4.1c4.4-6.1,6.1-12.1,5.5-18.4
			c-0.2-1.6,1-3.1,2.6-3.2c1.6-0.2,3.1,1,3.2,2.6c0.8,7.7-1.4,15.2-6.6,22.4C164,101.7,163.1,102.2,162.2,102.2z"/>
		<path class="st0" d="M104.5,130.2c-0.4,0-0.8-0.1-1.2-0.3c-1.5-0.7-2.1-2.4-1.4-3.9c1.5-3.2,3-5.4,5-7c5.7-4.8,12.8-5.4,20.4-6.1
			c2.2-0.2,4.4-0.4,6.7-0.7c1.6-0.2,3.1,0.9,3.3,2.5c0.2,1.6-0.9,3.1-2.5,3.3c-2.4,0.3-4.8,0.5-7,0.7c-7.1,0.6-12.8,1.1-17.1,4.7
			c-1.2,1-2.3,2.7-3.4,5C106.7,129.5,105.6,130.2,104.5,130.2z"/>
		<path class="st0" d="M84.2,160.1c-1.3,0-2.5-0.8-2.8-2.1c-0.5-1.6,0.5-3.2,2-3.7c2.7-0.8,5.1-2.1,6.9-4c2.5-2.5,4.4-5.6,6.2-10.1
			c0.6-1.5,2.3-2.2,3.8-1.6c1.5,0.6,2.2,2.3,1.6,3.8c-1.3,3.3-3.5,8.1-7.5,12c-2.5,2.5-5.8,4.4-9.5,5.5
			C84.8,160.1,84.5,160.1,84.2,160.1z"/>
		<path class="st0" d="M72.4,160.5c-0.2,0-0.4,0-0.6-0.1c-9.5-1.9-13.8-6.2-17.3-9.6c-2.8-2.8-4.8-4.8-8.9-5.2
			c-1.6-0.2-2.8-1.6-2.6-3.3c0.2-1.6,1.6-2.8,3.3-2.6c6.2,0.7,9.3,3.9,12.4,6.9c3.2,3.2,6.5,6.5,14.2,8c1.6,0.3,2.6,1.9,2.3,3.5
			C75.1,159.5,73.8,160.5,72.4,160.5z"/>
		<path class="st0" d="M64.5,201.6c-1,0-1.9-0.5-2.5-1.4c-0.9-1.4-0.4-3.2,0.9-4.1c3-1.8,5.3-4.3,6.7-7.2c0.7-1.5,2.5-2.1,3.9-1.3
			c1.5,0.7,2.1,2.5,1.3,3.9c-1.9,3.8-4.9,7.1-8.8,9.6C65.5,201.5,65,201.6,64.5,201.6z"/>
		<path class="st0" d="M48.9,205.8c-7.5,0-15.1-2.2-22.1-6.3c-3.5-2.1-7.4-3.3-10.9-3.3c-2.9,0-6.5,0.7-7,4.1
			c-0.1,0.6-0.1,1.1-0.1,1.6c0,1.6-1.3,2.9-2.9,2.9c0,0,0,0,0,0c-1.6,0-2.9-1.3-2.9-3c0-0.8,0.1-1.6,0.2-2.4
			c0.9-5.7,5.7-9.1,12.8-9.1c4.5,0,9.5,1.5,13.9,4.1c6.1,3.6,12.7,5.5,19.1,5.5c1.6,0,2.9,1.3,2.9,2.9S50.5,205.8,48.9,205.8z"/>
		<path class="st0" d="M64.6,267.7c-0.7,0-1.3-0.2-1.9-0.7c-1.6-1.3-3.4-2.3-5-3.1c-3.7-2-6.2-3.3-6.8-9c-0.6-5.7,0.4-9.7,1.6-13.9
			c0.4-1.6,0.9-3.2,1.2-5c0.3-1.6,1.9-2.6,3.5-2.3c1.6,0.3,2.6,1.9,2.3,3.5c-0.4,1.9-0.9,3.8-1.3,5.4c-1.1,4-1.9,7.1-1.4,11.7
			c0.3,2.6,0.3,2.6,3.7,4.4c1.7,0.9,3.9,2.1,6,3.8c1.3,1,1.4,2.9,0.4,4.2C66.3,267.3,65.4,267.7,64.6,267.7z"/>
		<path class="st0" d="M63.2,314.9c-1.1,0-2.1-0.6-2.6-1.6c-0.3-0.5-0.5-1.1-0.7-1.7c-2.2-6.2,0.1-10,3.3-15.1
			c1.4-2.2,2.9-4.7,4-7.4c0.6-1.5,2.3-2.2,3.8-1.7c1.5,0.6,2.3,2.3,1.7,3.8c-1.3,3.3-3,6-4.5,8.4c-3.3,5.3-3.9,6.8-2.7,10
			c0.1,0.4,0.3,0.7,0.4,1c0.7,1.4,0.2,3.2-1.3,4C64.1,314.7,63.7,314.9,63.2,314.9z"/>
		<path class="st0" d="M101.4,372.6c-0.6,0-1.2-0.2-1.7-0.6c-1.3-1-1.6-2.8-0.7-4.1c1.2-1.6,2.2-3.3,3-5.1c0.7-1.5,2.5-2.1,3.9-1.4
			c1.5,0.7,2.1,2.5,1.4,3.9c-1,2.1-2.2,4.1-3.6,6C103.3,372.2,102.4,372.6,101.4,372.6z"/>
		<path class="st0" d="M65.2,413.6c-0.8,0-1.7-0.4-2.3-1.1c-1.3-1.6-4.3-5.9-3.1-11.3c1.4-6.4,8.3-12.7,20-18.2
			c4.6-2.1,8.6-4.7,12-7.5c1.3-1,3.1-0.9,4.2,0.4c1,1.3,0.9,3.1-0.4,4.2c-3.8,3.2-8.3,6-13.3,8.3c-9.7,4.6-15.8,9.7-16.8,14.2
			c-0.6,2.8,1.1,5.3,1.9,6.2c1,1.2,0.9,3.1-0.4,4.2C66.5,413.4,65.8,413.6,65.2,413.6z"/>
		<path class="st0" d="M92.9,405.7c-0.6,0-1.2-0.2-1.8-0.6c-1.3-1-1.6-2.8-0.6-4.1c0.5-0.7,1.1-1.5,1.6-2.3c0.9-1.4,2.7-1.8,4.1-1
			c1.4,0.9,1.8,2.7,1,4.1c-0.6,1-1.2,1.9-1.9,2.7C94.7,405.3,93.8,405.7,92.9,405.7z"/>
		<path class="st0" d="M99.3,393.6c-0.4,0-0.9-0.1-1.3-0.3c-1.5-0.7-2.1-2.5-1.4-3.9c10.8-22.6,25.6-27.3,36.2-27.3
			c1.9,0,3.9,0.2,5.9,0.5c14.6,2.2,21.5,11.3,26.2,19.9c0.8,1.4,0.3,3.2-1.1,4c-1.4,0.8-3.2,0.3-4-1.1c-4.3-7.7-9.9-15.1-22-17
			c-15.3-2.3-27.3,5.7-35.9,23.5C101.5,393,100.4,393.6,99.3,393.6z"/>
		<path class="st0" d="M217.2,393.8c-1,0-2-0.5-2.5-1.4c-0.8-1.4-0.4-3.2,1-4c7.8-4.7,17.6-9.5,30.5-9.5c2.8,0,5.7,0.2,8.6,0.7
			c7.1,1.1,13.4,3.5,18.7,7.2c1.3,0.9,1.7,2.8,0.7,4.1c-0.9,1.3-2.8,1.7-4.1,0.7c-4.6-3.2-10.1-5.3-16.3-6.3
			c-2.6-0.4-5.2-0.6-7.7-0.6c-11.4,0-19.9,4.1-27.4,8.6C218.3,393.7,217.7,393.8,217.2,393.8z"/>
		<path class="st0" d="M285.4,409.8c-1.2,0-2.3-0.7-2.8-1.9c-0.9-2.3-1.9-4.4-3.1-6.4c-0.9-1.4-0.4-3.2,0.9-4.1
			c1.4-0.9,3.2-0.4,4.1,0.9c1.4,2.3,2.6,4.8,3.6,7.4c0.6,1.5-0.2,3.2-1.7,3.8C286.1,409.7,285.8,409.8,285.4,409.8z"/>
		<path class="st0" d="M310.4,402.1c-1.2,0-2.4-0.8-2.8-2c-5.5-16.4-1.3-32.7,10-38.8c3.9-2.1,8.1-3.1,13.1-3.1
			c4.2,0,8.1,0.7,11.9,1.4l0.8,0.1c1.6,0.3,2.7,1.8,2.4,3.4c-0.3,1.6-1.8,2.6-3.4,2.4l-0.8-0.1c-3.5-0.6-7.1-1.3-10.8-1.3
			c-3.9,0-7.3,0.8-10.3,2.4c-8.6,4.6-11.7,18.3-7.2,31.8c0.5,1.5-0.3,3.2-1.9,3.7C311,402.1,310.7,402.1,310.4,402.1z"/>
		<path class="st0" d="M363.6,337.9c-0.4,0-0.8-0.1-1.1-0.2c-1.5-0.6-2.2-2.3-1.6-3.9c1.6-3.8,4.1-6.8,7.4-8.9c4.8-3,10.7-4,17-2.8
			c1.6,0.3,2.7,1.8,2.3,3.4c-0.3,1.6-1.8,2.7-3.4,2.3c-4.9-0.9-9.2-0.2-12.8,2c-2.3,1.4-4,3.5-5.1,6.2
			C365.9,337.2,364.8,337.9,363.6,337.9z"/>
		<path class="st0" d="M438.6,339.4c-1,0-2-0.5-2.6-1.5c-1.1-1.9-4-3.5-7.8-4.3c-7.4-1.5-23-4.7-31.2-14.4c-1.1-1.2-0.9-3.1,0.3-4.2
			c1.2-1.1,3.1-0.9,4.2,0.3c6.9,8.1,21.1,11,27.9,12.4c5.6,1.2,9.7,3.7,11.7,7.1c0.8,1.4,0.3,3.2-1.1,4
			C439.6,339.3,439.1,339.4,438.6,339.4z"/>
		<path class="st0" d="M404.8,267.9c-1.6,0-2.8-1.2-2.9-2.8c-0.5-8.5-4-12.3-8.4-17.1c-2-2.2-4.2-4.6-6.2-7.6
			c-0.9-1.4-0.5-3.2,0.9-4.1c1.4-0.9,3.2-0.5,4.1,0.9c1.7,2.6,3.7,4.8,5.6,6.8c4.8,5.2,9.3,10.1,9.9,20.7c0.1,1.6-1.1,3-2.8,3.1
			C404.9,267.9,404.8,267.9,404.8,267.9z"/>
		<path class="st0" d="M394.1,198.4c-6.8,0-13.1-2.4-17.7-6.8c-1.2-1.1-1.2-3-0.1-4.2c1.1-1.2,3-1.2,4.2-0.1
			c3.6,3.4,8.4,5.2,13.7,5.2c4.1,0,8.2-1.1,11.8-3.2c2.9-1.7,6.7-2.6,10.5-2.6c1.1,0,2.1,0.1,3.1,0.2c1.6,0.3,2.7,1.8,2.4,3.4
			c-0.3,1.6-1.8,2.7-3.4,2.4c-3-0.5-7.2,0.2-9.7,1.7C404.4,197,399.3,198.4,394.1,198.4z"/>
		<path class="st0" d="M400.1,135.4c-0.9,0-1.8-0.4-2.4-1.2c-1-1.3-0.7-3.2,0.7-4.1c3.3-2.4,6-5.5,8.6-8.6c4-4.5,8-9.3,14-12.1
			c3.9-1.9,8.7-2.9,13.1-2.9c9.4,0,15.7,4.4,18.6,12.9c0.7,2.1,0.9,4.2,0.6,6.2c-0.3,1.6-1.8,2.7-3.4,2.5c-1.6-0.3-2.7-1.8-2.5-3.4
			c0.2-1,0-2.1-0.4-3.4c-0.9-2.7-3-8.9-13-8.9c-3.6,0-7.4,0.9-10.6,2.3c-4.8,2.3-8.5,6.5-12,10.6c-2.7,3.2-5.8,6.7-9.6,9.5
			C401.3,135.2,400.7,135.4,400.1,135.4z"/>
		<path class="st0" d="M360.8,118.8c-1.2,0-2.4-0.8-2.8-2l-0.7-2c-2.4-7-4.2-12.4-12.5-17.3c-3.9-2.3-7.5-3.3-11.4-3.3
			c-3.5,0-7.1,0.9-10.9,1.8c-4.6,1.1-9.3,2.2-14.6,2.2c-1.6,0-2.9-1.3-2.9-2.9s1.3-2.9,2.9-2.9c4.7,0,9-1,13.2-2
			c4.2-1,8.1-1.9,12.3-1.9c4.9,0,9.5,1.3,14.3,4.1c10.3,5.9,12.6,12.9,15.1,20.3l0.7,2.1c0.5,1.5-0.3,3.2-1.8,3.8
			C361.5,118.8,361.2,118.8,360.8,118.8z"/>
		<path class="st0" d="M289.6,92.6c-0.5,0-1.1-0.1-1.6-0.4c-6.9-4.3-12.5-9.2-17.4-13.5c-8.2-7.3-14.1-12.6-23.8-13.7
			c-0.3,0-0.7-0.1-1-0.1c-6,0-13.7,5.5-21.2,10.9l-3.4-4.8c8.8-6.3,17.9-12.9,26.3-11.9c11.5,1.4,18.7,7.7,27,15.1
			c4.7,4.2,10,8.9,16.5,12.9c1.4,0.9,1.8,2.7,1,4.1C291.6,92.1,290.6,92.6,289.6,92.6z"/>
		<path class="st0" d="M170.7,45.2c-1.6,0-2.9-1.3-2.9-2.9c-0.1-1.9-0.1-3.7-0.2-5.5c-0.1-1.6,1.2-3,2.8-3.1c1.6-0.1,3,1.2,3.1,2.8
			c0.1,1.8,0.1,3.7,0.2,5.6C173.7,43.8,172.4,45.1,170.7,45.2C170.8,45.2,170.7,45.2,170.7,45.2z"/>
		<path class="st0" d="M141.6,34.7c-1.3,0-2.4-0.8-2.8-2.1c-3.4-10.6,1.1-15.9,5.5-18.5c3.6-2.1,9.8-3.5,15.5-1.8
			c4.6,1.4,8.2,4.5,10.5,9.2c0.7,1.5,0.1,3.2-1.3,4c-1.5,0.7-3.2,0.1-4-1.3c-1.6-3.2-3.9-5.2-6.9-6.1c-4.3-1.3-8.8,0.1-10.9,1.3
			c-2.4,1.4-5.2,4.1-2.8,11.6c0.5,1.6-0.4,3.2-1.9,3.7C142.2,34.7,141.9,34.7,141.6,34.7z"/>
		<path class="st0" d="M291.9,43.8c-1.5,0-2.7-1.1-2.9-2.6c-0.6-5.2,0.2-9.6,2.4-12.7c2.5-3.6,6.7-5.4,12.1-5.4
			c5.4,0,11.5,1.9,17.6,5.5c3.4,2,6.2,4,8.3,6.2c1.1,1.2,1.1,3,0,4.2c-1.2,1.1-3,1.1-4.2,0c-1.8-1.8-4.2-3.6-7.1-5.3
			c-5.3-3.1-10.4-4.7-14.7-4.7c-2.4,0-5.5,0.5-7.2,2.9c-1.3,1.9-1.8,4.9-1.3,8.6c0.2,1.6-0.9,3.1-2.6,3.3
			C292.1,43.8,292,43.8,291.9,43.8z"/>
		<path class="st0" d="M126.6,402c-0.5,0-1-0.1-1.4-0.4c-1.4-0.8-2-2.6-1.2-4c2-3.7,6-6.2,10.1-6.4c4.3-0.2,8.6,2.3,10.5,6.1
			c0.7,1.5,0.1,3.2-1.3,3.9c-1.5,0.7-3.2,0.1-3.9-1.3c-0.8-1.7-2.9-2.9-5-2.8c-2,0.1-4.1,1.4-5.1,3.3
			C128.7,401.4,127.7,402,126.6,402z"/>
		<path class="st0" d="M355,431.5c-0.1,0-0.1,0-0.2,0c-1.6-0.1-2.9-1.5-2.8-3.1c0.2-2.7,1-5.4,2.3-7.9c2.4-4.3,7.7-6.9,13.5-6.7
			c5.7,0.2,11.3,3.4,14.3,8.1c0.9,1.4,0.5,3.2-0.9,4.1c-1.4,0.9-3.2,0.5-4.1-0.9c-1.9-3-5.8-5.2-9.6-5.3c-3-0.2-6.6,1-8.1,3.7
			c-0.9,1.7-1.5,3.6-1.6,5.4C357.9,430.3,356.6,431.5,355,431.5z"/>
		<path class="st0" d="M239.5,19.5c-1.4,0-2.6-0.9-2.9-2.3c-0.8-3.7,0-7.5,2.3-10.6c2.4-3.2,5.9-5.1,9.9-5.4
			c7.9-0.6,13,4.8,14.1,10.5c0.3,1.6-0.8,3.1-2.4,3.4c-1.6,0.3-3.1-0.8-3.4-2.4c-0.6-3-3.3-6.1-7.8-5.7c-2.3,0.2-4.3,1.3-5.7,3.1
			c-1.3,1.7-1.8,3.9-1.3,5.8c0.4,1.6-0.7,3.2-2.2,3.5C239.9,19.4,239.7,19.5,239.5,19.5z"/>
	</g>
</g>
</svg>
